<mxfile host="app.diagrams.net" modified="2021-12-29T05:24:45.882Z" agent="5.0 (Macintosh; Intel Mac OS X 10_15_7) AppleWebKit/537.36 (KHTML, like Gecko) Chrome/96.0.4664.110 Safari/537.36" etag="7g9F1wwW-ADD-39Mi6U1" version="16.0.0" type="github">
  <diagram id="-A-gUe9-JIl_soFEbXDW" name="第 1 页">
    <mxGraphModel dx="548" dy="291" grid="1" gridSize="10" guides="1" tooltips="1" connect="1" arrows="1" fold="1" page="1" pageScale="1" pageWidth="827" pageHeight="1169" background="#ffffff" math="0" shadow="0">
      <root>
        <mxCell id="0" />
        <mxCell id="1" parent="0" />
        <mxCell id="3c_puX_aiHgk13lIbvcL-1" value="" style="rounded=0;whiteSpace=wrap;html=1;shadow=1;fillColor=#dae8fc;strokeColor=#6c8ebf;" vertex="1" parent="1">
          <mxGeometry x="280" y="120" width="40" height="40" as="geometry" />
        </mxCell>
        <mxCell id="3c_puX_aiHgk13lIbvcL-2" value="" style="rounded=0;whiteSpace=wrap;html=1;shadow=1;fillColor=#f5f5f5;fontColor=#333333;strokeColor=#666666;" vertex="1" parent="1">
          <mxGeometry x="320" y="120" width="40" height="40" as="geometry" />
        </mxCell>
        <mxCell id="3c_puX_aiHgk13lIbvcL-3" value="" style="rounded=0;whiteSpace=wrap;html=1;shadow=1;fillColor=#f5f5f5;strokeColor=#666666;fontColor=#333333;" vertex="1" parent="1">
          <mxGeometry x="280" y="160" width="40" height="40" as="geometry" />
        </mxCell>
        <mxCell id="3c_puX_aiHgk13lIbvcL-4" value="" style="rounded=0;whiteSpace=wrap;html=1;shadow=1;fillColor=#dae8fc;strokeColor=#6c8ebf;" vertex="1" parent="1">
          <mxGeometry x="320" y="160" width="40" height="40" as="geometry" />
        </mxCell>
        <mxCell id="3c_puX_aiHgk13lIbvcL-5" value="" style="rounded=0;whiteSpace=wrap;html=1;shadow=1;fillColor=#dae8fc;strokeColor=#6c8ebf;" vertex="1" parent="1">
          <mxGeometry x="280" y="200" width="40" height="40" as="geometry" />
        </mxCell>
        <mxCell id="3c_puX_aiHgk13lIbvcL-6" value="" style="rounded=0;whiteSpace=wrap;html=1;shadow=1;fillColor=#f5f5f5;strokeColor=#666666;fontColor=#333333;" vertex="1" parent="1">
          <mxGeometry x="320" y="200" width="40" height="40" as="geometry" />
        </mxCell>
        <mxCell id="3c_puX_aiHgk13lIbvcL-7" value="" style="rounded=0;whiteSpace=wrap;html=1;shadow=1;fillColor=#dae8fc;strokeColor=#6c8ebf;" vertex="1" parent="1">
          <mxGeometry x="360" y="120" width="40" height="40" as="geometry" />
        </mxCell>
        <mxCell id="3c_puX_aiHgk13lIbvcL-8" value="" style="rounded=0;whiteSpace=wrap;html=1;shadow=1;fillColor=#f5f5f5;fontColor=#333333;strokeColor=#666666;" vertex="1" parent="1">
          <mxGeometry x="400" y="120" width="40" height="40" as="geometry" />
        </mxCell>
        <mxCell id="3c_puX_aiHgk13lIbvcL-9" value="" style="rounded=0;whiteSpace=wrap;html=1;shadow=1;fillColor=#f5f5f5;strokeColor=#666666;fontColor=#333333;" vertex="1" parent="1">
          <mxGeometry x="360" y="160" width="40" height="40" as="geometry" />
        </mxCell>
        <mxCell id="3c_puX_aiHgk13lIbvcL-10" value="" style="rounded=0;whiteSpace=wrap;html=1;shadow=1;fillColor=#dae8fc;strokeColor=#6c8ebf;" vertex="1" parent="1">
          <mxGeometry x="400" y="160" width="40" height="40" as="geometry" />
        </mxCell>
        <mxCell id="3c_puX_aiHgk13lIbvcL-11" value="" style="rounded=0;whiteSpace=wrap;html=1;shadow=1;fillColor=#dae8fc;strokeColor=#6c8ebf;" vertex="1" parent="1">
          <mxGeometry x="360" y="200" width="40" height="40" as="geometry" />
        </mxCell>
        <mxCell id="3c_puX_aiHgk13lIbvcL-12" value="" style="rounded=0;whiteSpace=wrap;html=1;shadow=1;fillColor=#f5f5f5;strokeColor=#666666;fontColor=#333333;" vertex="1" parent="1">
          <mxGeometry x="400" y="200" width="40" height="40" as="geometry" />
        </mxCell>
        <mxCell id="3c_puX_aiHgk13lIbvcL-13" value="" style="rounded=0;whiteSpace=wrap;html=1;shadow=1;fillColor=#dae8fc;strokeColor=#6c8ebf;" vertex="1" parent="1">
          <mxGeometry x="440" y="120" width="40" height="40" as="geometry" />
        </mxCell>
        <mxCell id="3c_puX_aiHgk13lIbvcL-14" value="" style="rounded=0;whiteSpace=wrap;html=1;shadow=1;fillColor=#f5f5f5;fontColor=#333333;strokeColor=#666666;" vertex="1" parent="1">
          <mxGeometry x="480" y="120" width="40" height="40" as="geometry" />
        </mxCell>
        <mxCell id="3c_puX_aiHgk13lIbvcL-15" value="" style="rounded=0;whiteSpace=wrap;html=1;shadow=1;fillColor=#f5f5f5;strokeColor=#666666;fontColor=#333333;" vertex="1" parent="1">
          <mxGeometry x="440" y="160" width="40" height="40" as="geometry" />
        </mxCell>
        <mxCell id="3c_puX_aiHgk13lIbvcL-16" value="" style="rounded=0;whiteSpace=wrap;html=1;shadow=1;" vertex="1" parent="1">
          <mxGeometry x="480" y="160" width="40" height="40" as="geometry" />
        </mxCell>
        <mxCell id="3c_puX_aiHgk13lIbvcL-17" value="" style="rounded=0;whiteSpace=wrap;html=1;shadow=1;fillColor=#d5e8d4;strokeColor=#82b366;" vertex="1" parent="1">
          <mxGeometry x="440" y="200" width="40" height="40" as="geometry" />
        </mxCell>
        <mxCell id="3c_puX_aiHgk13lIbvcL-18" value="" style="rounded=0;whiteSpace=wrap;html=1;shadow=1;fillColor=#f8cecc;strokeColor=#b85450;" vertex="1" parent="1">
          <mxGeometry x="480" y="200" width="40" height="40" as="geometry" />
        </mxCell>
        <mxCell id="3c_puX_aiHgk13lIbvcL-19" value="" style="rounded=0;whiteSpace=wrap;html=1;shadow=1;fillColor=#d5e8d4;strokeColor=#82b366;" vertex="1" parent="1">
          <mxGeometry x="520" y="120" width="40" height="40" as="geometry" />
        </mxCell>
        <mxCell id="3c_puX_aiHgk13lIbvcL-20" value="" style="rounded=0;whiteSpace=wrap;html=1;shadow=1;fillColor=#f8cecc;strokeColor=#b85450;" vertex="1" parent="1">
          <mxGeometry x="520" y="160" width="40" height="40" as="geometry" />
        </mxCell>
        <mxCell id="3c_puX_aiHgk13lIbvcL-21" value="" style="rounded=0;whiteSpace=wrap;html=1;shadow=1;fillColor=#dae8fc;strokeColor=#6c8ebf;" vertex="1" parent="1">
          <mxGeometry x="520" y="200" width="40" height="40" as="geometry" />
        </mxCell>
        <mxCell id="3c_puX_aiHgk13lIbvcL-22" value="&lt;font style=&quot;font-size: 15px&quot; face=&quot;Comic Sans MS&quot;&gt;m=3, n=7&lt;/font&gt;" style="text;html=1;strokeColor=none;fillColor=none;align=center;verticalAlign=middle;whiteSpace=wrap;rounded=0;shadow=1;" vertex="1" parent="1">
          <mxGeometry x="360" y="240" width="120" height="40" as="geometry" />
        </mxCell>
        <mxCell id="3c_puX_aiHgk13lIbvcL-23" value="&lt;font style=&quot;font-size: 12px&quot;&gt;0&lt;/font&gt;" style="text;html=1;strokeColor=none;fillColor=none;align=center;verticalAlign=middle;whiteSpace=wrap;rounded=0;shadow=1;fontFamily=Comic Sans MS;fontSize=15;" vertex="1" parent="1">
          <mxGeometry x="240" y="120" width="40" height="40" as="geometry" />
        </mxCell>
        <mxCell id="3c_puX_aiHgk13lIbvcL-24" value="&lt;font style=&quot;font-size: 12px&quot;&gt;1&lt;/font&gt;" style="text;html=1;strokeColor=none;fillColor=none;align=center;verticalAlign=middle;whiteSpace=wrap;rounded=0;shadow=1;fontFamily=Comic Sans MS;fontSize=15;" vertex="1" parent="1">
          <mxGeometry x="240" y="160" width="40" height="40" as="geometry" />
        </mxCell>
        <mxCell id="3c_puX_aiHgk13lIbvcL-25" value="&lt;font style=&quot;font-size: 12px&quot;&gt;2&lt;/font&gt;" style="text;html=1;strokeColor=none;fillColor=none;align=center;verticalAlign=middle;whiteSpace=wrap;rounded=0;shadow=1;fontFamily=Comic Sans MS;fontSize=15;" vertex="1" parent="1">
          <mxGeometry x="240" y="200" width="40" height="40" as="geometry" />
        </mxCell>
        <mxCell id="3c_puX_aiHgk13lIbvcL-26" value="&lt;font style=&quot;font-size: 12px&quot;&gt;0&lt;/font&gt;" style="text;html=1;strokeColor=none;fillColor=none;align=center;verticalAlign=middle;whiteSpace=wrap;rounded=0;shadow=1;fontFamily=Comic Sans MS;fontSize=15;" vertex="1" parent="1">
          <mxGeometry x="280" y="80" width="40" height="40" as="geometry" />
        </mxCell>
        <mxCell id="3c_puX_aiHgk13lIbvcL-27" value="&lt;font style=&quot;font-size: 12px&quot;&gt;1&lt;/font&gt;" style="text;html=1;strokeColor=none;fillColor=none;align=center;verticalAlign=middle;whiteSpace=wrap;rounded=0;shadow=1;fontFamily=Comic Sans MS;fontSize=15;" vertex="1" parent="1">
          <mxGeometry x="320" y="80" width="40" height="40" as="geometry" />
        </mxCell>
        <mxCell id="3c_puX_aiHgk13lIbvcL-28" value="&lt;font style=&quot;font-size: 12px&quot;&gt;2&lt;/font&gt;" style="text;html=1;strokeColor=none;fillColor=none;align=center;verticalAlign=middle;whiteSpace=wrap;rounded=0;shadow=1;fontFamily=Comic Sans MS;fontSize=15;" vertex="1" parent="1">
          <mxGeometry x="360" y="80" width="40" height="40" as="geometry" />
        </mxCell>
        <mxCell id="3c_puX_aiHgk13lIbvcL-29" value="&lt;font style=&quot;font-size: 12px&quot;&gt;3&lt;/font&gt;" style="text;html=1;strokeColor=none;fillColor=none;align=center;verticalAlign=middle;whiteSpace=wrap;rounded=0;shadow=1;fontFamily=Comic Sans MS;fontSize=15;" vertex="1" parent="1">
          <mxGeometry x="400" y="80" width="40" height="40" as="geometry" />
        </mxCell>
        <mxCell id="3c_puX_aiHgk13lIbvcL-30" value="&lt;font style=&quot;font-size: 12px&quot;&gt;4&lt;/font&gt;" style="text;html=1;strokeColor=none;fillColor=none;align=center;verticalAlign=middle;whiteSpace=wrap;rounded=0;shadow=1;fontFamily=Comic Sans MS;fontSize=15;" vertex="1" parent="1">
          <mxGeometry x="440" y="80" width="40" height="40" as="geometry" />
        </mxCell>
        <mxCell id="3c_puX_aiHgk13lIbvcL-31" value="&lt;font style=&quot;font-size: 12px&quot;&gt;5&lt;/font&gt;" style="text;html=1;strokeColor=none;fillColor=none;align=center;verticalAlign=middle;whiteSpace=wrap;rounded=0;shadow=1;fontFamily=Comic Sans MS;fontSize=15;" vertex="1" parent="1">
          <mxGeometry x="480" y="80" width="40" height="40" as="geometry" />
        </mxCell>
        <mxCell id="3c_puX_aiHgk13lIbvcL-32" value="&lt;font style=&quot;font-size: 12px&quot;&gt;6&lt;/font&gt;" style="text;html=1;strokeColor=none;fillColor=none;align=center;verticalAlign=middle;whiteSpace=wrap;rounded=0;shadow=1;fontFamily=Comic Sans MS;fontSize=15;" vertex="1" parent="1">
          <mxGeometry x="520" y="80" width="40" height="40" as="geometry" />
        </mxCell>
        <mxCell id="3c_puX_aiHgk13lIbvcL-33" value="" style="shape=umlActor;verticalLabelPosition=bottom;verticalAlign=top;html=1;outlineConnect=0;shadow=1;fontFamily=Comic Sans MS;fontSize=12;" vertex="1" parent="1">
          <mxGeometry x="287.5" y="125" width="25" height="30" as="geometry" />
        </mxCell>
        <mxCell id="3c_puX_aiHgk13lIbvcL-34" value="" style="verticalLabelPosition=bottom;verticalAlign=top;html=1;shape=mxgraph.basic.6_point_star;shadow=1;fontFamily=Comic Sans MS;fontSize=12;" vertex="1" parent="1">
          <mxGeometry x="527.5" y="212.5" width="25" height="15" as="geometry" />
        </mxCell>
        <mxCell id="3c_puX_aiHgk13lIbvcL-35" value="" style="rounded=0;whiteSpace=wrap;html=1;shadow=1;fontFamily=Comic Sans MS;fontSize=12;opacity=0;" vertex="1" parent="1">
          <mxGeometry x="560" y="120" width="40" height="120" as="geometry" />
        </mxCell>
        <mxCell id="3c_puX_aiHgk13lIbvcL-36" value="" style="endArrow=classic;html=1;rounded=0;fontFamily=Comic Sans MS;fontSize=12;" edge="1" parent="1">
          <mxGeometry width="50" height="50" relative="1" as="geometry">
            <mxPoint x="490" y="219.88999999999987" as="sourcePoint" />
            <mxPoint x="510" y="219.88999999999987" as="targetPoint" />
          </mxGeometry>
        </mxCell>
        <mxCell id="3c_puX_aiHgk13lIbvcL-37" value="" style="endArrow=classic;html=1;rounded=0;fontFamily=Comic Sans MS;fontSize=12;" edge="1" parent="1">
          <mxGeometry width="50" height="50" relative="1" as="geometry">
            <mxPoint x="539.8899999999999" y="170" as="sourcePoint" />
            <mxPoint x="539.8899999999999" y="190" as="targetPoint" />
          </mxGeometry>
        </mxCell>
        <mxCell id="3c_puX_aiHgk13lIbvcL-38" value="" style="endArrow=classic;html=1;rounded=0;fontFamily=Comic Sans MS;fontSize=12;" edge="1" parent="1">
          <mxGeometry width="50" height="50" relative="1" as="geometry">
            <mxPoint x="539.8799999999999" y="130" as="sourcePoint" />
            <mxPoint x="539.8799999999999" y="150" as="targetPoint" />
          </mxGeometry>
        </mxCell>
        <mxCell id="3c_puX_aiHgk13lIbvcL-40" value="" style="endArrow=classic;html=1;rounded=0;fontFamily=Comic Sans MS;fontSize=12;" edge="1" parent="1">
          <mxGeometry width="50" height="50" relative="1" as="geometry">
            <mxPoint x="453" y="219.8800000000001" as="sourcePoint" />
            <mxPoint x="473" y="219.8800000000001" as="targetPoint" />
          </mxGeometry>
        </mxCell>
        <mxCell id="3c_puX_aiHgk13lIbvcL-42" value="(2, 5)" style="text;html=1;strokeColor=none;fillColor=none;align=center;verticalAlign=middle;whiteSpace=wrap;rounded=0;shadow=1;fontFamily=Comic Sans MS;fontSize=12;" vertex="1" parent="1">
          <mxGeometry x="480" y="220" width="40" height="20" as="geometry" />
        </mxCell>
        <mxCell id="3c_puX_aiHgk13lIbvcL-43" value="(1, 6)" style="text;html=1;strokeColor=none;fillColor=none;align=center;verticalAlign=middle;whiteSpace=wrap;rounded=0;shadow=1;fontFamily=Comic Sans MS;fontSize=12;" vertex="1" parent="1">
          <mxGeometry x="520" y="180" width="40" height="20" as="geometry" />
        </mxCell>
        <mxCell id="3c_puX_aiHgk13lIbvcL-44" value="(2, 6)" style="text;html=1;strokeColor=none;fillColor=none;align=center;verticalAlign=middle;whiteSpace=wrap;rounded=0;shadow=1;fontFamily=Comic Sans MS;fontSize=12;" vertex="1" parent="1">
          <mxGeometry x="520" y="220" width="40" height="20" as="geometry" />
        </mxCell>
        <mxCell id="3c_puX_aiHgk13lIbvcL-45" value="" style="ellipse;whiteSpace=wrap;html=1;strokeWidth=2;fillWeight=2;hachureGap=8;fillColor=#990000;fillStyle=dots;sketch=1;" vertex="1" parent="1">
          <mxGeometry x="480" y="160" width="40" height="40" as="geometry" />
        </mxCell>
      </root>
    </mxGraphModel>
  </diagram>
</mxfile>
